<svg width="628" height="178" viewBox="0 0 628 178" fill="none" xmlns="http://www.w3.org/2000/svg" xmlns:xlink="http://www.w3.org/1999/xlink">
<path d="M212.221 83.9047C212.088 90.038 209.654 95.038 204.921 98.9047C207.721 100.771 209.888 103.205 211.421 106.205C213.021 109.138 213.821 112.271 213.821 115.605V116.105C213.688 121.771 211.721 126.505 207.921 130.305C204.188 134.105 199.454 136.071 193.721 136.205H164.621V64.5047H193.121C198.521 64.638 203.021 66.5047 206.621 70.1047C210.221 73.7047 212.088 78.2047 212.221 83.6047V83.9047ZM172.121 95.5047H193.121C196.321 95.5047 199.054 94.3714 201.321 92.1047C203.588 89.838 204.721 87.1047 204.721 83.9047V83.6047C204.721 80.4047 203.588 77.6713 201.321 75.4047C199.054 73.138 196.321 72.0047 193.121 72.0047H172.121V95.5047ZM172.121 103.005V128.705H193.721C197.188 128.705 200.154 127.471 202.621 125.005C205.088 122.538 206.321 119.571 206.321 116.105V115.605C206.321 112.138 205.088 109.171 202.621 106.705C200.154 104.238 197.188 103.005 193.721 103.005H172.121ZM264.401 64.3047H271.901V112.105C271.634 118.771 269.267 124.338 264.801 128.805C260.401 133.205 254.867 135.538 248.201 135.805C241.401 135.738 235.701 133.471 231.101 129.005C226.501 124.538 224.067 118.905 223.801 112.105V64.3047H231.301V112.105C231.367 116.571 232.967 120.371 236.101 123.505C239.234 126.638 243.034 128.238 247.501 128.305C252.101 128.438 256.034 126.938 259.301 123.805C262.567 120.605 264.267 116.705 264.401 112.105V64.3047ZM281.906 89.0047C282.04 82.0714 284.406 76.338 289.006 71.8047C293.606 67.2047 299.34 64.8047 306.206 64.6047H327.006V72.1047H306.206C301.54 72.1047 297.573 73.7714 294.306 77.1047C291.04 80.3714 289.406 84.338 289.406 89.0047V112.005C289.406 116.671 291.04 120.638 294.306 123.905C297.64 127.171 301.606 128.805 306.206 128.805H327.006V136.305H306.206C299.34 136.171 293.606 133.838 289.006 129.305C284.473 124.705 282.106 118.971 281.906 112.105V89.0047ZM344.484 135.805H336.984V65.0047H344.484V99.4047L381.384 64.1047L386.584 69.5047L358.984 95.9047L388.284 132.505L382.384 137.105L353.584 101.105L344.484 109.805V135.805ZM439.413 72.0047H398.313V65.1047H440.313C441.979 65.1047 443.379 65.7047 444.513 66.9047C445.713 68.038 446.313 69.438 446.313 71.1047V97.1047C446.313 98.7714 445.713 100.205 444.513 101.405C443.379 102.538 441.979 103.105 440.313 103.105H406.512V128.305H446.613V135.105H405.613C403.946 135.105 402.513 134.538 401.313 133.405C400.179 132.205 399.613 130.805 399.613 129.205V102.205C399.613 100.538 400.179 99.138 401.313 98.0047C402.513 96.8047 403.946 96.2047 405.613 96.2047H439.413V72.0047ZM464.113 136.205H456.613V64.4047H464.113V96.6047H497.613V64.4047H505.113V136.205H497.613V104.105H464.113V136.205ZM555.709 64.3047H563.209V112.105C562.943 118.771 560.576 124.338 556.109 128.805C551.709 133.205 546.176 135.538 539.509 135.805C532.709 135.738 527.009 133.471 522.409 129.005C517.809 124.538 515.376 118.905 515.109 112.105V64.3047H522.609V112.105C522.676 116.571 524.276 120.371 527.409 123.505C530.543 126.638 534.343 128.238 538.809 128.305C543.409 128.438 547.343 126.938 550.609 123.805C553.876 120.605 555.576 116.705 555.709 112.105V64.3047ZM620.815 83.9047C620.682 90.038 618.248 95.038 613.515 98.9047C616.315 100.771 618.482 103.205 620.015 106.205C621.615 109.138 622.415 112.271 622.415 115.605V116.105C622.282 121.771 620.315 126.505 616.515 130.305C612.782 134.105 608.048 136.071 602.315 136.205H573.215V64.5047H601.715C607.115 64.638 611.615 66.5047 615.215 70.1047C618.815 73.7047 620.682 78.2047 620.815 83.6047V83.9047ZM580.715 95.5047H601.715C604.915 95.5047 607.648 94.3714 609.915 92.1047C612.182 89.838 613.315 87.1047 613.315 83.9047V83.6047C613.315 80.4047 612.182 77.6713 609.915 75.4047C607.648 73.138 604.915 72.0047 601.715 72.0047H580.715V95.5047ZM580.715 103.005V128.705H602.315C605.782 128.705 608.748 127.471 611.215 125.005C613.682 122.538 614.915 119.571 614.915 116.105V115.605C614.915 112.138 613.682 109.171 611.215 106.705C608.748 104.238 605.782 103.005 602.315 103.005H580.715Z" fill="#333333"/>
<path d="M135.594 98.1998L122.732 96.5508L75.2422 103.146L100.966 116.007V110.566H128.833L135.594 98.1998Z" fill="#333333"/>
<path d="M118.506 65.1133L110.414 71.892L112.163 77.905L121.894 79.2171L134.031 65.8776L118.506 65.1133Z" fill="#B3B3B3"/>
<path d="M133.989 65.918L114.664 76.1745L115.425 78.3705L121.943 79.2489L133.989 65.918Z" fill="#898989"/>
<path d="M100.941 115.357L77.8711 103.82L82.1401 169.718L113.203 146.829L100.941 115.357Z" fill="#898989"/>
<path d="M63.5725 61.9849L74.4203 71.0967L123.098 95.9433L115.344 108.542L77.0625 103.697L74.4203 79.9521L57.1947 76.56L38.7812 57.6641L63.5725 61.9849Z" fill="#898989"/>
<path d="M88.2062 64.9297L74.3594 71.0819L122.753 96.5958L135.65 98.2224L110.496 71.7142L88.2062 64.9297Z" fill="#CCCCCC"/>
<path d="M50.2967 78.4119L39.4258 57.9336L76.2473 80.5611L82.4862 169.958L39.4258 139.803L66.6026 80.5611L50.2967 78.4119Z" fill="#333333"/>
<circle cx="64.3783" cy="10.3158" r="2.99154" stroke="#333333" stroke-width="2.41018"/>
<circle cx="117.913" cy="10.3158" r="2.99154" stroke="#333333" stroke-width="2.41018"/>
<circle cx="71.8314" cy="24.6048" r="2.99154" stroke="#333333" stroke-width="2.41018"/>
<circle cx="110.62" cy="24.6048" r="2.99154" stroke="#333333" stroke-width="2.41018"/>
<circle cx="50.597" cy="31.2572" r="2.99154" stroke="#333333" stroke-width="2.41018"/>
<circle cx="131.683" cy="31.2572" r="2.99154" stroke="#333333" stroke-width="2.41018"/>
<circle cx="46.0853" cy="54.0931" r="2.99154" stroke="#333333" stroke-width="2.41018"/>
<circle cx="135.511" cy="54.0931" r="2.99154" stroke="#333333" stroke-width="2.41018"/>
<path d="M64.372 12.4258V40.9991L72.1315 48.7586M79.8911 56.5181L82.7914 59.4184L82.8847 63.57L79.8911 64.9305L69.4487 54.4881H49.1445M79.8911 56.5181V47.525L71.7692 39.4031V27.7997M79.8911 56.5181L72.1315 48.7586M72.1315 48.7586H58.426L50.6665 40.9991V34.1814" stroke="#333333" stroke-width="3.24855"/>
<path d="M117.964 12.4258V40.9991L110.204 48.7586M102.445 56.5181L99.5446 59.4184L99.4512 63.8958L102.445 64.9305L112.887 54.4881H133.191M102.445 56.5181V47.525L110.567 39.4031V27.7997M102.445 56.5181L110.204 48.7586M110.204 48.7586H123.91L131.669 40.9991V34.1814" stroke="#333333" stroke-width="3.24855"/>
<path d="M78.5293 113.521L95.4766 130.501L96.3555 128.98L97.6182 129.709L100.988 115.129L105.812 127.697L98.3818 131.454L97.5312 132.928L100.762 135.291L104.07 149.452L96.9727 139.086L97.377 133.025L95.2266 131.784L79.6006 128.96L79.5059 127.659L79.5859 128.898L47.875 120.969L60.2549 94.2734L78.5293 113.521Z" fill="#B3B3B3"/>
<path d="M78.5293 113.521L95.4766 130.501L96.3555 128.98L97.6182 129.709L100.988 115.129L105.812 127.697L98.3818 131.454L97.5312 132.928L100.762 135.291L104.07 149.452L96.9727 139.086L97.377 133.025L95.2266 131.784L79.6006 128.96L79.5059 127.659L79.5859 128.898L47.875 120.969L60.2549 94.2734L78.5293 113.521Z" fill="url(#pattern0_12961_416)"/>
<defs>
<pattern id="pattern0_12961_416" patternUnits="userSpaceOnUse" patternTransform="matrix(1.75969 0 0 1.75969 75.0272 120.046)" preserveAspectRatio="none" viewBox="-0.355469 -0.355469 10.998 10.998" width="1" height="1">
<use xlink:href="#pattern0_12961_416_inner" transform="translate(-21.9961 -21.9961)"/>
<use xlink:href="#pattern0_12961_416_inner" transform="translate(-10.998 -21.9961)"/>
<use xlink:href="#pattern0_12961_416_inner" transform="translate(0 -21.9961)"/>
<use xlink:href="#pattern0_12961_416_inner" transform="translate(-21.9961 -10.998)"/>
<use xlink:href="#pattern0_12961_416_inner" transform="translate(-10.998 -10.998)"/>
<use xlink:href="#pattern0_12961_416_inner" transform="translate(0 -10.998)"/>
<use xlink:href="#pattern0_12961_416_inner" transform="translate(-21.9961 0)"/>
<use xlink:href="#pattern0_12961_416_inner" transform="translate(-10.998 0)"/>
<g id="pattern0_12961_416_inner">
<path d="M0 0L21.9961 21.9961" stroke="white"/>
</g>
</pattern></defs>
</svg>
