<svg width="622" height="178" viewBox="0 0 622 178" fill="none" xmlns="http://www.w3.org/2000/svg" xmlns:xlink="http://www.w3.org/1999/xlink">
<path d="M205.995 83.9047C205.861 90.038 203.428 95.038 198.695 98.9047C201.495 100.771 203.661 103.205 205.195 106.205C206.795 109.138 207.595 112.271 207.595 115.605V116.105C207.461 121.771 205.495 126.505 201.695 130.305C197.961 134.105 193.228 136.071 187.495 136.205H158.395V64.5047H186.895C192.295 64.638 196.795 66.5047 200.395 70.1047C203.995 73.7047 205.861 78.2047 205.995 83.6047V83.9047ZM165.895 95.5047H186.895C190.095 95.5047 192.828 94.3714 195.095 92.1047C197.361 89.838 198.495 87.1047 198.495 83.9047V83.6047C198.495 80.4047 197.361 77.6713 195.095 75.4047C192.828 73.138 190.095 72.0047 186.895 72.0047H165.895V95.5047ZM165.895 103.005V128.705H187.495C190.961 128.705 193.928 127.471 196.395 125.005C198.861 122.538 200.095 119.571 200.095 116.105V115.605C200.095 112.138 198.861 109.171 196.395 106.705C193.928 104.238 190.961 103.005 187.495 103.005H165.895ZM258.174 64.3047H265.674V112.105C265.408 118.771 263.041 124.338 258.574 128.805C254.174 133.205 248.641 135.538 241.974 135.805C235.174 135.738 229.474 133.471 224.874 129.005C220.274 124.538 217.841 118.905 217.574 112.105V64.3047H225.074V112.105C225.141 116.571 226.741 120.371 229.874 123.505C233.008 126.638 236.808 128.238 241.274 128.305C245.874 128.438 249.808 126.938 253.074 123.805C256.341 120.605 258.041 116.705 258.174 112.105V64.3047ZM275.68 89.0047C275.813 82.0714 278.18 76.338 282.78 71.8047C287.38 67.2047 293.113 64.8047 299.98 64.6047H320.78V72.1047H299.98C295.313 72.1047 291.346 73.7714 288.08 77.1047C284.813 80.3714 283.18 84.338 283.18 89.0047V112.005C283.18 116.671 284.813 120.638 288.08 123.905C291.413 127.171 295.38 128.805 299.98 128.805H320.78V136.305H299.98C293.113 136.171 287.38 133.838 282.78 129.305C278.246 124.705 275.88 118.971 275.68 112.105V89.0047ZM338.258 135.805H330.758V65.0047H338.258V99.4047L375.158 64.1047L380.358 69.5047L352.758 95.9047L382.058 132.505L376.158 137.105L347.358 101.105L338.258 109.805V135.805ZM433.186 72.0047H392.086V65.1047H434.086C435.753 65.1047 437.153 65.7047 438.286 66.9047C439.486 68.038 440.086 69.438 440.086 71.1047V97.1047C440.086 98.7714 439.486 100.205 438.286 101.405C437.153 102.538 435.753 103.105 434.086 103.105H400.286V128.305H440.386V135.105H399.386C397.719 135.105 396.286 134.538 395.086 133.405C393.953 132.205 393.386 130.805 393.386 129.205V102.205C393.386 100.538 393.953 99.138 395.086 98.0047C396.286 96.8047 397.719 96.2047 399.386 96.2047H433.186V72.0047ZM457.887 136.205H450.387V64.4047H457.887V96.6047H491.387V64.4047H498.887V136.205H491.387V104.105H457.887V136.205ZM549.483 64.3047H556.983V112.105C556.716 118.771 554.349 124.338 549.883 128.805C545.483 133.205 539.949 135.538 533.283 135.805C526.483 135.738 520.783 133.471 516.183 129.005C511.583 124.538 509.149 118.905 508.883 112.105V64.3047H516.383V112.105C516.449 116.571 518.049 120.371 521.183 123.505C524.316 126.638 528.116 128.238 532.583 128.305C537.183 128.438 541.116 126.938 544.383 123.805C547.649 120.605 549.349 116.705 549.483 112.105V64.3047ZM614.588 83.9047C614.455 90.038 612.022 95.038 607.288 98.9047C610.088 100.771 612.255 103.205 613.788 106.205C615.388 109.138 616.188 112.271 616.188 115.605V116.105C616.055 121.771 614.088 126.505 610.288 130.305C606.555 134.105 601.822 136.071 596.088 136.205H566.988V64.5047H595.488C600.888 64.638 605.388 66.5047 608.988 70.1047C612.588 73.7047 614.455 78.2047 614.588 83.6047V83.9047ZM574.488 95.5047H595.488C598.688 95.5047 601.422 94.3714 603.688 92.1047C605.955 89.838 607.088 87.1047 607.088 83.9047V83.6047C607.088 80.4047 605.955 77.6713 603.688 75.4047C601.422 73.138 598.688 72.0047 595.488 72.0047H574.488V95.5047ZM574.488 103.005V128.705H596.088C599.555 128.705 602.522 127.471 604.988 125.005C607.455 122.538 608.688 119.571 608.688 116.105V115.605C608.688 112.138 607.455 109.171 604.988 106.705C602.522 104.238 599.555 103.005 596.088 103.005H574.488Z" fill="#4566A4"/>
<path d="M135.594 98.1998L122.732 96.5508L75.2422 103.146L100.966 116.007V110.566H128.833L135.594 98.1998Z" fill="#173774"/>
<path d="M118.506 65.1133L110.414 71.892L112.163 77.905L121.894 79.2171L134.031 65.8776L118.506 65.1133Z" fill="#4566A4"/>
<path d="M133.989 65.918L114.664 76.1745L115.425 78.3705L121.943 79.2489L133.989 65.918Z" fill="#173774"/>
<path d="M100.941 115.357L77.8711 103.82L82.1401 169.718L113.203 146.829L100.941 115.357Z" fill="#4566A4"/>
<path d="M63.5725 61.9849L74.4203 71.0967L123.098 95.9433L115.344 108.542L77.0625 103.697L74.4203 79.9521L57.1947 76.56L38.7812 57.6641L63.5725 61.9849Z" fill="#4566A4"/>
<path d="M88.2062 64.9297L74.3594 71.0819L122.753 96.5958L135.65 98.2224L110.496 71.7142L88.2062 64.9297Z" fill="#6F93D7"/>
<path d="M50.2967 78.4119L39.4258 57.9336L76.2473 80.5611L82.4862 169.958L39.4258 139.803L66.6026 80.5611L50.2967 78.4119Z" fill="url(#paint0_linear_12961_417)"/>
<circle cx="64.3783" cy="10.3158" r="2.99154" stroke="#4566A4" stroke-width="2.41018"/>
<circle cx="117.913" cy="10.3158" r="2.99154" stroke="#4566A4" stroke-width="2.41018"/>
<circle cx="71.8314" cy="24.6048" r="2.99154" stroke="#4566A4" stroke-width="2.41018"/>
<circle cx="110.62" cy="24.6048" r="2.99154" stroke="#4566A4" stroke-width="2.41018"/>
<circle cx="50.597" cy="31.2572" r="2.99154" stroke="#4566A4" stroke-width="2.41018"/>
<circle cx="131.683" cy="31.2572" r="2.99154" stroke="#4566A4" stroke-width="2.41018"/>
<circle cx="46.0853" cy="54.0931" r="2.99154" stroke="#4566A4" stroke-width="2.41018"/>
<circle cx="135.511" cy="54.0931" r="2.99154" stroke="#4566A4" stroke-width="2.41018"/>
<path d="M64.372 12.4258V40.9991L72.1315 48.7586M79.8911 56.5181L82.7914 59.4184L82.8847 63.57L79.8911 64.9305L69.4487 54.4881H49.1445M79.8911 56.5181V47.525L71.7692 39.4031V27.7997M79.8911 56.5181L72.1315 48.7586M72.1315 48.7586H58.426L50.6665 40.9991V34.1814" stroke="#4566A4" stroke-width="3.24855"/>
<path d="M117.964 12.4258V40.9991L110.204 48.7586M102.445 56.5181L99.5446 59.4184L99.4512 63.8958L102.445 64.9305L112.887 54.4881H133.191M102.445 56.5181V47.525L110.567 39.4031V27.7997M102.445 56.5181L110.204 48.7586M110.204 48.7586H123.91L131.669 40.9991V34.1814" stroke="#4566A4" stroke-width="3.24855"/>
<path d="M78.5293 113.521L95.4766 130.501L96.3555 128.98L97.6182 129.709L100.988 115.129L105.812 127.697L98.3818 131.454L97.5312 132.928L100.762 135.291L104.07 149.452L96.9727 139.086L97.377 133.025L95.2266 131.784L79.6006 128.96L79.5059 127.659L79.5859 128.898L47.875 120.969L60.2549 94.2734L78.5293 113.521Z" fill="#6F93D7"/>
<path d="M78.5293 113.521L95.4766 130.501L96.3555 128.98L97.6182 129.709L100.988 115.129L105.812 127.697L98.3818 131.454L97.5312 132.928L100.762 135.291L104.07 149.452L96.9727 139.086L97.377 133.025L95.2266 131.784L79.6006 128.96L79.5059 127.659L79.5859 128.898L47.875 120.969L60.2549 94.2734L78.5293 113.521Z" fill="url(#pattern0_12961_417)"/>
<defs>
<linearGradient id="paint0_linear_12961_417" x1="60.956" y1="68.1924" x2="60.956" y2="168.713" gradientUnits="userSpaceOnUse">
<stop stop-color="#294780"/>
<stop offset="1" stop-color="#122A57"/>
</linearGradient>
<pattern id="pattern0_12961_417" patternUnits="userSpaceOnUse" patternTransform="matrix(1.75969 0 0 1.75969 75.0272 120.046)" preserveAspectRatio="none" viewBox="-0.355469 -0.355469 10.998 10.998" width="1" height="1">
<use xlink:href="#pattern0_12961_417_inner" transform="translate(-21.9961 -21.9961)"/>
<use xlink:href="#pattern0_12961_417_inner" transform="translate(-10.998 -21.9961)"/>
<use xlink:href="#pattern0_12961_417_inner" transform="translate(0 -21.9961)"/>
<use xlink:href="#pattern0_12961_417_inner" transform="translate(-21.9961 -10.998)"/>
<use xlink:href="#pattern0_12961_417_inner" transform="translate(-10.998 -10.998)"/>
<use xlink:href="#pattern0_12961_417_inner" transform="translate(0 -10.998)"/>
<use xlink:href="#pattern0_12961_417_inner" transform="translate(-21.9961 0)"/>
<use xlink:href="#pattern0_12961_417_inner" transform="translate(-10.998 0)"/>
<g id="pattern0_12961_417_inner">
<path d="M0 0L21.9961 21.9961" stroke="white"/>
</g>
</pattern></defs>
</svg>
